<?xml version="1.0" standalone="no"?>
<!DOCTYPE svg PUBLIC "-//W3C//DTD SVG 20010904//EN"
 "http://www.w3.org/TR/2001/REC-SVG-20010904/DTD/svg10.dtd">
<svg version="1.0" xmlns="http://www.w3.org/2000/svg"
 width="1394.400000pt" height="696.800000pt" viewBox="0 0 1394.400000 696.800000"
 preserveAspectRatio="xMidYMid meet">
<metadata>
Created by potrace 1.13, written by Peter Selinger 2001-2015
</metadata>
<g transform="translate(0.000000,696.800000) scale(0.080000,-0.080000)"
fill="#000000" stroke="none">
<path d="M0 4355 l0 -4355 8715 0 8715 0 0 4355 0 4355 -8715 0 -8715 0 0
-4355z m8578 2403 c8 -8 18 -9 35 -1 13 6 28 8 34 5 6 -4 22 -45 36 -92 l25
-85 -18 -235 c-9 -129 -16 -236 -14 -238 1 -2 12 2 24 8 12 7 124 29 248 50
299 50 309 47 395 -101 32 -54 34 -69 8 -69 -11 0 -39 -20 -64 -44 -53 -51
-82 -59 -197 -50 -125 9 -449 -41 -482 -74 -11 -11 -58 -168 -58 -194 0 -31
25 -31 87 1 72 37 129 53 308 86 77 15 178 36 225 47 143 34 177 22 272 -96
42 -53 40 -69 -11 -79 -18 -4 -36 -18 -50 -40 l-20 -33 -183 -23 c-164 -20
-209 -30 -433 -98 -137 -41 -255 -79 -261 -84 -17 -14 -76 -174 -72 -194 7
-41 34 -40 93 0 31 22 58 42 60 45 2 3 -2 25 -8 49 -12 42 -11 43 26 77 20 19
41 34 45 34 5 0 38 -19 73 -41 94 -61 125 -72 184 -65 27 4 176 36 330 71 154
35 289 65 300 67 34 5 164 -44 171 -65 3 -10 19 -34 36 -53 17 -19 29 -36 27
-38 -13 -13 -110 -76 -117 -76 -4 0 -19 -13 -32 -28 l-25 -28 -217 -12 c-119
-7 -223 -15 -232 -18 -36 -14 -21 -35 88 -120 65 -51 160 -140 222 -208 60
-65 137 -142 171 -170 34 -28 183 -120 330 -203 l268 -152 174 -46 c95 -25
186 -52 201 -60 44 -23 56 -75 18 -75 -13 0 -34 -9 -48 -20 -22 -18 -42 -20
-184 -20 -135 0 -188 5 -340 31 l-180 32 -129 84 c-186 121 -411 324 -591 532
-132 153 -154 173 -254 239 -60 40 -118 72 -130 72 -32 0 -227 -48 -332 -82
-65 -21 -102 -39 -118 -57 -30 -33 -68 -109 -138 -269 -91 -208 -135 -275
-296 -453 -141 -156 -329 -302 -492 -381 -83 -40 -121 -46 -174 -27 -32 11
-32 11 -16 37 9 15 59 61 111 102 105 84 309 288 394 395 30 39 75 104 99 145
24 41 56 94 72 117 33 48 83 187 65 180 -183 -77 -249 -107 -330 -154 -119
-67 -158 -72 -215 -26 -51 41 -102 110 -102 137 0 31 34 73 78 95 21 10 134
49 252 87 118 37 254 85 301 106 48 21 101 41 118 44 40 8 45 15 75 104 27 81
25 102 -8 72 -11 -10 -50 -35 -86 -54 -57 -31 -80 -36 -189 -48 -118 -12 -124
-12 -142 7 -25 24 -46 146 -31 177 9 19 142 82 212 101 14 3 100 43 192 87
l166 81 31 97 c34 108 37 125 19 117 -7 -3 -69 -30 -138 -60 -187 -81 -250
-92 -325 -58 -88 40 -113 105 -77 200 16 42 20 45 75 57 31 8 70 20 86 29 16
8 51 19 77 25 27 6 83 25 124 42 41 17 116 44 167 60 51 15 98 35 106 42 9 9
16 48 20 108 3 51 16 127 28 168 15 52 22 106 23 175 1 87 5 107 28 155 31 63
84 130 102 130 6 0 17 -5 24 -12z m4959 -340 c74 -77 90 -141 66 -260 -8 -43
-13 -84 -10 -92 3 -8 35 -21 72 -29 57 -13 74 -23 123 -69 68 -63 73 -75 74
-153 1 -108 -32 -199 -103 -279 -20 -23 -48 -62 -63 -88 -31 -53 -25 -59 36
-33 31 13 56 12 224 -6 209 -22 202 -20 306 -111 111 -99 142 -163 98 -203
-15 -14 -38 -17 -122 -18 -147 -1 -216 10 -242 38 -31 34 -68 37 -297 26 -155
-7 -214 -13 -238 -25 -34 -18 -121 -99 -121 -113 0 -6 -32 -39 -72 -74 -40
-35 -91 -81 -114 -102 -27 -24 -47 -35 -58 -31 -12 5 -16 0 -16 -19 0 -18 -8
-28 -32 -38 -18 -7 -79 -44 -136 -82 -83 -57 -108 -68 -132 -65 -25 4 -34 0
-47 -22 -15 -27 -103 -65 -131 -58 -19 4 -52 -60 -52 -102 0 -50 -16 -101 -42
-135 -42 -55 -142 -41 -232 32 -18 16 -35 21 -48 17 -14 -4 -30 4 -57 28 -44
42 -110 92 -115 87 -5 -7 -36 -363 -36 -422 0 -32 -7 -74 -15 -94 -8 -19 -15
-39 -15 -44 0 -12 37 -49 49 -49 5 0 71 75 146 168 178 216 162 200 180 181
13 -12 13 -24 4 -74 -17 -85 -39 -144 -61 -159 -15 -11 -17 -21 -12 -53 6 -37
3 -42 -53 -105 -108 -122 -133 -163 -133 -221 0 -29 -6 -63 -13 -77 -11 -21
-20 -25 -57 -24 -74 1 -158 24 -190 50 -16 14 -56 58 -89 99 -80 99 -81 116
-42 445 17 140 37 368 46 505 9 138 22 311 29 385 18 173 10 228 -41 276 -39
37 -40 62 -3 81 50 25 107 16 194 -31 127 -69 155 -112 164 -243 5 -87 -12
-273 -30 -332 -13 -43 -13 -190 0 -203 6 -6 14 -3 23 10 8 10 29 22 47 25 18
4 51 21 73 39 l41 33 -4 150 c-4 126 -11 176 -42 312 -39 175 -44 256 -25 388
14 92 6 105 -41 70 -19 -14 -46 -25 -62 -25 -48 0 -139 33 -150 55 -12 24 -53
62 -115 110 -45 35 -46 35 -47 98 l-2 63 171 69 c93 38 181 76 195 85 14 9 81
38 150 63 69 25 163 62 210 81 94 39 116 42 163 22 63 -26 157 -136 157 -183
0 -12 -16 -38 -35 -58 -20 -19 -33 -40 -30 -46 10 -15 -31 -97 -74 -149 -21
-25 -49 -65 -63 -90 -15 -25 -47 -62 -72 -83 -54 -45 -67 -68 -112 -198 -36
-106 -37 -100 11 -224 15 -38 35 -114 45 -167 10 -53 25 -109 33 -125 9 -17
15 -60 16 -112 2 -130 17 -173 51 -144 15 13 16 20 7 34 -13 20 -11 22 88 120
33 34 68 82 85 118 16 34 36 64 44 67 9 3 27 -3 42 -15 l26 -20 24 29 c14 16
40 35 59 41 22 8 41 26 56 53 13 22 39 59 60 81 20 22 39 49 43 61 6 20 5 20
-56 7 -42 -9 -92 -11 -149 -7 -69 5 -93 3 -117 -10 -53 -28 -166 -16 -136 14
6 6 97 46 202 89 148 61 217 83 310 101 119 23 120 24 111 47 -14 38 -11 46
15 39 20 -5 28 1 49 37 14 23 51 74 83 112 65 80 99 149 109 219 7 55 9 55
-67 -2 -26 -20 -80 -80 -120 -134 -50 -67 -85 -103 -110 -115 -20 -10 -43 -30
-52 -45 -9 -15 -29 -29 -46 -33 -17 -4 -35 -15 -40 -25 -14 -26 -55 -33 -90
-15 -50 26 -111 179 -96 240 4 16 34 46 81 81 41 30 83 67 92 82 9 15 36 47
59 72 24 25 52 66 64 93 17 38 26 47 45 47 23 0 25 4 25 48 0 41 9 61 65 152
36 58 65 108 65 113 0 20 53 117 64 117 6 0 30 -19 53 -42z m-9124 -29 c42
-16 88 -48 165 -117 87 -78 112 -106 134 -154 15 -32 36 -72 48 -87 11 -16 23
-49 26 -73 5 -39 2 -51 -30 -101 -41 -63 -45 -93 -16 -102 11 -4 109 6 218 21
241 33 402 36 522 10 104 -22 334 -97 399 -131 80 -40 125 -114 106 -174 -5
-17 -77 -73 -107 -83 -6 -2 -5 -14 3 -32 12 -26 11 -30 -11 -48 -31 -25 -60
-18 -181 44 l-97 49 -60 -15 c-33 -9 -69 -16 -81 -16 -12 0 -63 -21 -114 -46
-84 -43 -100 -47 -181 -52 -78 -4 -91 -3 -102 13 -9 12 -10 23 -3 36 15 30 95
79 188 116 88 36 135 68 124 86 -9 14 -257 2 -453 -22 -390 -49 -579 -103
-941 -269 -96 -43 -183 -82 -194 -87 -11 -4 -77 -10 -147 -14 -70 -4 -130 -10
-134 -14 -4 -3 2 -28 12 -54 15 -38 19 -71 18 -156 -2 -101 -4 -112 -35 -174
-47 -91 -103 -151 -166 -179 -28 -13 -57 -32 -63 -44 -10 -19 -12 -19 -60 14
-27 18 -60 36 -74 40 -32 8 -36 22 -38 152 -1 86 3 126 21 189 28 101 64 191
105 263 18 32 40 91 50 132 28 116 32 123 56 110 12 -6 24 -18 27 -27 3 -8 19
-29 34 -46 28 -30 30 -31 66 -18 21 7 76 30 123 51 193 88 370 154 505 190 80
21 157 47 172 58 48 34 142 138 147 163 18 87 17 93 -13 111 -16 9 -37 30 -46
47 -22 44 -102 278 -111 326 -4 22 -13 54 -21 72 -16 40 -16 38 4 58 23 23
127 15 206 -16z m307 -1088 c14 -10 35 -36 48 -58 22 -41 22 -41 6 -142 -17
-106 -14 -154 10 -187 12 -16 32 -20 128 -25 204 -11 282 -40 314 -116 21 -49
17 -66 -23 -110 -35 -38 -44 -41 -131 -57 -51 -10 -130 -19 -175 -22 -59 -3
-85 -9 -94 -20 -23 -31 -27 -163 -8 -324 27 -238 29 -306 11 -385 -92 -419
-109 -478 -152 -517 -55 -49 -102 -26 -155 76 -29 56 -38 65 -67 71 -19 3 -66
30 -105 59 -40 29 -110 77 -157 106 -97 61 -117 80 -93 94 11 6 44 1 97 -15
66 -19 104 -24 200 -24 l120 0 8 32 c7 28 28 732 21 742 -12 19 -189 -112
-288 -213 l-43 -45 -94 6 c-62 3 -124 15 -186 34 -51 16 -99 29 -107 29 -25 0
-55 38 -55 68 0 35 25 60 71 68 19 4 138 53 264 109 127 56 253 110 280 119
28 9 77 31 110 50 l60 33 14 167 c14 166 14 166 -9 242 -28 88 -27 93 50 146
57 41 82 42 130 9z m8833 -290 c21 -8 38 -33 75 -108 l48 -98 44 -6 c25 -3 77
-16 115 -28 109 -37 147 -92 113 -165 -15 -35 -40 -49 -133 -76 -44 -13 -94
-35 -111 -48 -31 -24 -31 -27 -27 -91 8 -104 50 -179 68 -121 10 32 41 24 147
-36 93 -53 117 -74 82 -74 -13 0 -15 -7 -9 -41 6 -35 4 -45 -18 -67 -13 -15
-32 -47 -41 -72 -17 -45 -18 -46 -129 -91 l-112 -45 -43 -83 c-24 -45 -42 -84
-40 -87 3 -2 20 1 39 6 18 6 48 10 66 10 17 0 35 5 38 10 4 6 27 10 53 9 26
-1 60 4 75 10 45 17 165 -3 197 -34 14 -14 35 -25 46 -25 10 0 33 -11 49 -25
l30 -25 -37 -35 c-22 -20 -48 -35 -62 -35 -13 0 -37 -7 -52 -15 -16 -8 -46
-15 -66 -15 -20 0 -56 -8 -80 -18 -24 -11 -68 -22 -98 -26 -153 -19 -499 -80
-605 -107 -179 -46 -194 -41 -355 94 -87 74 -94 96 -36 115 30 10 47 10 73 1
26 -8 45 -8 78 1 24 7 56 9 72 6 21 -5 34 -2 43 9 7 8 41 24 77 35 36 11 76
29 90 39 l25 20 -39 16 c-45 19 -196 117 -235 154 -21 18 -28 34 -28 62 0 56
7 66 74 111 33 23 94 63 134 90 41 27 106 65 145 85 40 20 76 41 80 47 8 12 4
103 -6 112 -3 3 -24 0 -48 -6 -65 -18 -116 -14 -207 15 -82 26 -174 88 -155
105 4 4 28 12 53 19 25 7 104 48 175 90 96 58 143 80 180 86 75 10 125 66 125
139 0 30 -9 44 -66 99 l-66 64 58 31 c59 31 84 33 137 13z m-4850 -189 c45
-21 87 -45 94 -53 7 -8 13 -42 15 -74 l3 -60 35 1 c19 1 58 5 87 9 46 7 56 5
99 -21 52 -32 121 -99 130 -126 7 -25 -49 -92 -94 -112 -20 -9 -86 -24 -147
-34 -101 -16 -110 -19 -125 -44 -14 -26 -13 -31 9 -73 13 -25 43 -63 67 -85
43 -39 45 -40 97 -34 56 7 194 -19 285 -52 41 -15 43 -18 36 -48 -3 -17 -17
-58 -29 -91 -13 -33 -26 -72 -29 -87 -7 -33 -12 -33 -235 -18 -146 9 -163 5
-180 -40 -5 -14 -15 -62 -21 -106 -6 -45 -20 -113 -30 -150 -26 -90 -25 -133
5 -251 51 -205 67 -303 55 -339 -11 -33 -51 -64 -83 -64 -7 0 -28 -16 -47 -35
-36 -37 -60 -44 -79 -22 -6 8 -38 22 -71 32 -111 34 -127 67 -90 188 22 70 70
477 70 590 0 58 -3 71 -24 92 l-24 24 -78 -25 c-141 -45 -264 -32 -335 36 -31
29 -39 44 -39 72 0 44 20 62 59 55 22 -5 83 13 228 65 109 38 204 75 211 80
13 11 15 105 3 148 -6 22 -14 26 -71 31 -97 10 -141 25 -202 69 -44 31 -57 47
-62 75 -4 19 -11 35 -16 35 -47 0 63 59 185 100 109 36 164 66 175 96 14 36
12 91 -5 148 -18 60 -19 118 -2 135 18 19 75 6 170 -37z m-3662 -566 c19 -8
68 -17 109 -21 105 -9 172 -30 267 -81 111 -60 134 -82 192 -178 74 -122 76
-128 50 -202 -12 -35 -32 -75 -45 -91 -21 -27 -26 -28 -106 -27 -145 1 -199
42 -324 243 -37 58 -92 140 -124 181 -70 92 -80 111 -80 148 0 46 9 50 61 28z
m-1209 -129 c16 -13 36 -45 46 -76 26 -76 39 -82 99 -43 62 40 81 41 55 5 -10
-16 -22 -40 -25 -54 -5 -18 -16 -29 -34 -33 l-26 -7 20 -21 21 -21 -26 -22
-27 -23 19 -73 c22 -89 19 -116 -14 -140 -53 -39 -282 -47 -313 -10 -15 17
-57 189 -57 231 0 17 19 48 51 85 28 33 65 89 82 125 50 107 75 122 129 77z"/>
<path d="M13240 3984 c-66 -24 -106 -33 -133 -30 l-37 4 42 -49 c24 -27 53
-63 65 -80 19 -26 24 -28 29 -15 8 22 19 20 62 -9 20 -14 39 -25 43 -25 3 0
11 11 17 25 10 22 9 25 -9 25 -19 0 -19 1 5 33 23 30 45 98 46 140 0 24 -20
21 -130 -19z"/>
</g>
</svg>
