<?xml version="1.0" standalone="no"?>
<!DOCTYPE svg PUBLIC "-//W3C//DTD SVG 20010904//EN"
 "http://www.w3.org/TR/2001/REC-SVG-20010904/DTD/svg10.dtd">
<svg version="1.0" xmlns="http://www.w3.org/2000/svg"
 width="742.400000pt" height="322.400000pt" viewBox="0 0 742.400000 322.400000"
 preserveAspectRatio="xMidYMid meet">
<metadata>
Created by potrace 1.13, written by Peter Selinger 2001-2015
</metadata>
<g transform="translate(0.000000,322.400000) scale(0.080000,-0.080000)"
fill="#000000" stroke="none">
<path d="M4383 3287 c-47 -50 -63 -90 -63 -157 0 -36 -9 -98 -20 -139 -11 -41
-20 -98 -20 -127 0 -29 -5 -56 -12 -62 -12 -9 -136 -55 -243 -88 -27 -9 -64
-22 -81 -29 -18 -8 -48 -17 -67 -20 -28 -6 -38 -14 -46 -37 -19 -53 -13 -84
18 -111 60 -50 120 -45 269 24 47 21 87 37 90 34 3 -3 -5 -38 -18 -79 l-23
-73 -116 -56 c-64 -30 -149 -68 -189 -83 -40 -15 -77 -33 -83 -40 -14 -17 -1
-100 18 -119 11 -11 29 -14 71 -9 102 9 118 14 175 48 31 19 58 32 61 29 2 -2
-5 -30 -15 -62 l-19 -57 -108 -42 c-59 -23 -163 -59 -232 -81 -154 -48 -176
-58 -195 -88 -14 -20 -14 -26 -1 -52 19 -37 82 -91 105 -91 10 0 49 17 87 37
38 20 110 56 161 79 l91 43 -18 -54 c-36 -105 -137 -252 -260 -379 -63 -65
-142 -140 -176 -167 -78 -62 -84 -76 -38 -85 76 -14 275 115 428 277 109 115
144 170 215 328 80 178 85 184 179 214 42 14 111 33 153 43 l76 17 78 -48 c61
-38 98 -73 177 -164 116 -136 288 -291 408 -369 79 -52 93 -57 205 -78 153
-29 321 -32 376 -6 21 9 39 20 39 24 0 18 -37 38 -112 57 -156 41 -193 56
-376 160 -181 102 -185 105 -320 240 -75 75 -158 152 -184 171 -46 34 -57 53
-39 64 4 3 76 10 159 16 l151 10 53 40 c29 22 56 40 60 40 4 0 -5 18 -19 40
-21 31 -38 44 -77 56 -51 16 -52 16 -251 -31 -251 -59 -275 -60 -341 -17 -60
38 -88 40 -109 8 -12 -18 -13 -30 -6 -49 9 -24 7 -29 -33 -56 -38 -26 -46 -28
-62 -17 -17 13 -17 16 1 71 11 32 25 64 30 72 20 26 332 113 470 130 120 15
132 18 157 45 15 15 34 28 42 28 27 0 18 24 -30 74 l-47 48 -56 -5 c-99 -9
-352 -66 -408 -92 -79 -36 -86 -27 -57 76 14 50 21 60 48 68 66 22 213 41 308
41 98 0 100 1 128 30 15 17 35 30 44 30 23 0 20 12 -16 66 -53 78 -62 80 -251
49 -89 -15 -171 -32 -181 -37 -18 -10 -18 -7 -13 38 4 27 9 103 13 169 5 98 3
132 -10 179 -15 51 -20 57 -39 52 -11 -3 -26 -1 -32 4 -8 7 -19 2 -32 -13z"/>
<path d="M7755 3038 c-12 -29 -39 -80 -59 -112 -22 -37 -36 -73 -36 -93 0 -25
-4 -33 -18 -33 -11 0 -25 -14 -36 -37 -10 -21 -28 -49 -41 -63 -75 -78 -95
-98 -129 -127 -34 -29 -37 -35 -31 -65 12 -55 47 -119 69 -128 14 -5 28 -3 41
6 11 8 27 17 35 21 8 3 30 19 48 35 18 15 36 28 41 28 4 0 23 21 41 48 44 63
99 121 131 137 l26 14 -8 -52 c-5 -32 -20 -67 -38 -92 -17 -22 -49 -66 -71
-97 -28 -40 -45 -55 -56 -51 -12 4 -14 0 -9 -18 6 -24 3 -25 -82 -43 -48 -10
-144 -41 -213 -70 -119 -49 -150 -74 -85 -69 17 2 80 6 140 11 61 4 116 12
123 16 23 14 12 -10 -33 -69 -25 -33 -45 -63 -45 -66 0 -4 -14 -12 -30 -19
-17 -7 -35 -21 -41 -31 -9 -17 -12 -18 -33 -4 -26 17 -32 13 -60 -42 -8 -17
-39 -55 -67 -84 -30 -31 -49 -58 -46 -68 2 -9 -2 -22 -9 -28 -20 -19 -31 4
-38 82 -8 79 -46 242 -76 327 l-20 58 21 62 c30 88 42 108 85 149 51 48 147
196 138 211 -3 5 6 22 20 39 14 17 26 34 26 37 0 17 -42 72 -72 95 -56 42 -68
41 -185 -6 -59 -25 -125 -50 -146 -57 -21 -6 -57 -22 -80 -35 -23 -12 -85 -39
-137 -60 l-96 -37 6 -43 c4 -33 12 -49 35 -66 37 -28 75 -68 75 -77 0 -8 72
-32 96 -32 9 0 29 8 45 17 15 9 31 14 34 11 3 -3 1 -45 -6 -94 -10 -85 -9 -96
20 -233 22 -104 31 -170 31 -235 l-1 -91 -35 -22 c-20 -13 -41 -23 -48 -23 -8
0 -19 -7 -26 -15 -7 -8 -16 -12 -21 -9 -12 7 -11 121 1 145 6 10 13 76 16 146
5 121 4 130 -18 168 -16 28 -41 50 -83 72 -62 34 -103 40 -136 23 -25 -14 -24
-26 5 -51 33 -29 39 -76 27 -195 -6 -55 -15 -173 -21 -264 -5 -91 -20 -249
-32 -352 -26 -223 -23 -240 55 -321 46 -49 59 -57 112 -67 74 -15 89 -7 93 50
4 46 19 73 90 158 37 44 43 58 39 82 -4 20 -2 30 9 34 29 11 62 145 38 153 -6
2 -55 -50 -110 -117 -54 -66 -103 -120 -110 -120 -26 0 -38 30 -26 64 7 18 12
55 12 82 0 51 21 266 26 273 2 2 28 -15 59 -39 31 -24 58 -40 61 -37 3 2 29
-10 58 -27 71 -43 117 -40 140 9 9 18 16 45 16 60 0 36 29 95 44 89 18 -7 83
23 90 41 4 10 13 14 24 11 12 -4 47 13 101 49 46 30 89 55 97 55 8 0 14 9 14
20 0 11 6 20 14 20 8 0 36 19 63 43 44 39 62 57 131 130 46 48 68 54 232 61
152 7 157 7 185 -16 25 -19 43 -23 132 -26 109 -4 133 3 133 40 0 22 -88 119
-134 147 -39 25 -273 50 -308 34 -13 -5 -29 -8 -35 -6 -14 5 3 38 42 83 53 61
89 162 80 225 -6 37 -15 51 -51 80 -24 20 -63 42 -86 49 l-43 12 4 86 c2 54
-1 94 -9 109 -15 30 -61 79 -72 79 -5 0 -20 -24 -33 -52z"/>
<path d="M1428 3064 c-22 -7 -23 2 7 -103 39 -140 66 -204 96 -233 26 -24 28
-33 23 -67 -5 -30 -19 -52 -63 -94 -53 -53 -61 -57 -166 -86 -60 -17 -164 -54
-230 -82 -66 -28 -144 -61 -174 -72 -53 -20 -54 -21 -68 -1 -8 10 -19 18 -24
17 -5 -2 -9 3 -9 11 0 7 -6 19 -13 25 -11 9 -16 0 -27 -47 -7 -31 -32 -97 -56
-147 -51 -108 -74 -199 -74 -288 0 -70 1 -71 63 -112 l37 -24 34 22 c18 12 47
29 62 38 39 21 91 119 99 189 4 36 1 74 -9 110 -8 30 -13 57 -10 61 2 3 43 8
92 11 83 5 98 10 257 80 259 115 355 141 646 177 174 22 266 26 287 12 18 -11
2 -23 -110 -79 -71 -36 -94 -52 -96 -69 -3 -22 0 -23 55 -23 44 0 73 7 123 31
36 17 93 37 128 45 l62 13 82 -39 c63 -31 85 -37 99 -29 14 7 17 17 13 33 -4
18 2 28 35 49 45 30 48 41 27 91 -16 39 -76 70 -223 115 -156 48 -211 54 -365
36 -73 -9 -166 -18 -205 -22 -84 -7 -87 -2 -48 62 33 54 31 80 -11 160 -39 76
-139 174 -209 206 -44 20 -110 30 -137 23z"/>
<path d="M1672 2287 c-31 -21 -33 -24 -25 -62 4 -22 7 -98 5 -169 -2 -153 -1
-152 -111 -197 -42 -17 -132 -56 -201 -87 -69 -30 -147 -63 -175 -72 -44 -15
-50 -21 -53 -48 -3 -30 -2 -31 80 -55 46 -14 112 -28 147 -31 l63 -6 66 61
c75 70 139 119 158 119 10 0 11 -52 7 -252 -3 -139 -10 -261 -15 -270 -7 -15
-23 -18 -87 -18 -43 0 -100 7 -127 15 -57 17 -88 19 -79 5 3 -5 38 -31 78 -56
40 -26 88 -59 107 -74 19 -15 46 -30 60 -33 17 -4 35 -24 56 -59 51 -90 106
-71 138 46 55 202 69 289 62 395 -17 277 -18 317 -7 344 9 24 16 27 55 27 24
0 79 7 122 15 99 19 130 45 120 99 -4 21 -16 42 -29 50 -37 24 -131 44 -185
38 -39 -3 -58 0 -78 13 l-27 17 7 100 c5 77 3 105 -9 127 -24 47 -69 54 -123
18z"/>
<path d="M7753 2095 c-17 -8 -34 -18 -37 -23 -3 -5 15 -28 40 -51 41 -38 46
-45 40 -74 -8 -42 -53 -87 -86 -87 -14 0 -67 -24 -118 -54 -50 -30 -107 -59
-126 -66 -20 -6 -36 -16 -36 -21 0 -16 60 -47 126 -65 51 -13 71 -15 106 -6
47 12 58 5 58 -38 0 -35 -8 -44 -70 -75 -85 -43 -227 -143 -232 -163 -10 -35
17 -72 86 -118 38 -25 80 -50 93 -55 20 -8 23 -12 13 -24 -6 -8 -28 -19 -48
-26 -20 -6 -48 -18 -61 -26 -12 -8 -32 -12 -43 -10 -11 3 -32 1 -47 -4 -17 -6
-37 -6 -52 -1 -25 10 -79 -3 -79 -18 0 -17 140 -128 170 -135 19 -4 69 3 138
19 59 13 172 34 252 46 80 12 173 30 208 41 34 10 70 19 80 19 34 0 94 22 113
41 20 20 20 21 2 34 -10 8 -24 15 -32 15 -8 0 -24 9 -35 19 -28 26 -104 29
-225 7 -52 -9 -95 -15 -97 -14 -1 2 12 30 29 63 31 57 35 61 106 90 52 22 77
38 83 54 4 13 17 36 28 51 11 16 17 35 14 44 -3 9 -1 22 5 30 9 11 -2 22 -61
56 -64 36 -74 40 -84 26 -6 -9 -16 -16 -21 -16 -15 0 -32 48 -35 97 -3 56 17
76 98 98 69 19 94 41 94 86 0 14 -8 33 -17 41 -17 15 -91 40 -154 52 -20 5
-32 19 -53 65 -14 32 -32 63 -39 69 -22 18 -61 21 -94 7z m-63 -763 c-12 -20
-17 -38 -12 -40 9 -3 5 -42 -4 -42 -2 0 -18 9 -36 20 -24 14 -34 16 -40 7 -4
-6 -8 -9 -10 -7 -2 3 -24 29 -48 59 -37 45 -41 54 -23 49 13 -3 58 6 105 23
l83 29 3 -31 c2 -18 -5 -45 -18 -67z"/>
<path d="M4384 1985 c-3 -8 -1 -37 5 -65 6 -28 11 -68 11 -90 0 -33 -5 -41
-35 -59 -20 -11 -59 -28 -88 -36 -56 -17 -150 -64 -129 -65 6 0 12 -11 12 -24
0 -43 97 -96 175 -96 43 0 45 -1 56 -41 23 -77 13 -87 -150 -145 -79 -28 -153
-49 -166 -46 -29 5 -41 -33 -20 -65 37 -56 143 -73 243 -39 51 17 54 17 73 0
14 -13 19 -30 19 -68 0 -69 -36 -363 -49 -406 -22 -71 -16 -89 37 -111 26 -11
56 -25 68 -30 16 -8 31 -4 75 23 30 18 57 37 61 43 15 19 8 79 -23 204 l-31
126 21 95 c11 52 23 114 26 137 10 64 17 67 165 58 128 -7 130 -7 130 15 0 11
6 33 14 48 25 50 29 89 9 97 -47 19 -163 41 -196 37 -46 -5 -77 14 -114 68
-34 53 -23 86 34 95 122 20 144 27 173 56 16 17 30 37 30 44 0 18 -87 94 -116
101 -13 3 -43 2 -68 -4 -54 -11 -71 1 -62 46 8 35 -7 51 -84 86 -62 29 -98 33
-106 11z"/>
<path d="M1950 1567 c0 -14 16 -47 35 -73 19 -27 68 -98 109 -159 41 -61 90
-120 108 -132 37 -25 112 -39 151 -29 26 6 67 78 67 117 0 32 -65 143 -100
172 -54 46 -152 87 -240 101 -47 8 -95 17 -107 21 -20 6 -23 4 -23 -18z"/>
<path d="M1084 1458 c-15 -29 -44 -75 -65 -102 -22 -27 -39 -52 -39 -57 0 -21
33 -145 41 -155 24 -29 187 -21 218 10 13 14 13 24 2 77 -11 53 -10 63 3 78
11 13 13 20 5 28 -8 8 -5 14 10 22 12 7 21 20 21 29 0 10 5 23 12 30 20 20 -1
14 -32 -9 -37 -28 -56 -20 -71 31 -12 40 -40 70 -66 70 -7 0 -25 -24 -39 -52z"/>
</g>
</svg>
